:FULLY-SPECIFIED
:FORCE-ALL-JOINTS-BE-3DOF
:DEGREES
16
root 0.311704 17.4553 -27.9031 3.92743 -4.08085 1.76211
lfemur -0.852163 4.42135 -25.8034
ltibia 60.5488 0 0
lfoot 4.72393 2.45721 0
ltoes -8.70068 0 0
rfemur -30.8607 -0.780148 21.2116
rtibia 69.2624 0 0
rfoot 5.67988 -0.860094 0
rtoes 9.29899 0 0
lowerback 17.4583 -1.31343 -3.42349
upperback 1.58145 -2.52592 -1.00567
thorax -7.98117 -1.11272 1.46085
lowerneck -3.55997 1.62542 -1.35881
upperneck -12.055 2.33615 1.4853
head -3.26702 1.15443 0.701965
lclavicle -4.29952e-15 2.98174e-16 0
lhumerus -21.8375 -19.9488 88.2322
lradius 110.614 0 0
lwrist 28.9248 0 0
lhand -38.0581 9.26294 0
lfingers 7.12502 0 0
lthumb -11.0952 38.9478 0
rclavicle -4.29952e-15 2.98174e-16 0
rhumerus -53.9256 5.87997 -86.4914
rradius 86.8314 0 0
rwrist -2.60659 0 0
rhand -46.4657 39.0531 0
rfingers 7.12502 0 0
rthumb -19.1922 9.99784 0
17
root 0.326366 17.4783 -27.3482 3.87668 -4.51103 1.73827
lfemur -0.441917 4.83209 -25.6666
ltibia 61.8394 0 0
lfoot 6.26957 2.58346 0
ltoes -8.53284 0 0
rfemur -30.5064 -0.564522 21.5102
rtibia 66.6641 0 0
rfoot 5.20062 -0.565976 0
rtoes 9.3505 0 0
lowerback 17.3383 -1.3194 -3.31374
upperback 1.57306 -2.50168 -0.927631
thorax -7.92613 -1.10493 1.4732
lowerneck -3.59549 1.74247 -1.3612
upperneck -11.9971 2.47633 1.31067
head -3.23975 1.22965 0.643228
lclavicle -3.95004e-15 7.95136e-16 0
lhumerus -22.6254 -19.903 88.5931
lradius 110.398 0 0
lwrist 29.0198 0 0
lhand -38.1159 9.32164 0
lfingers 7.12502 0 0
lthumb -11.1509 39.0034 0
rclavicle -3.95004e-15 7.95136e-16 0
rhumerus -53.8791 5.71204 -86.3705
rradius 87.215 0 0
rwrist -2.72751 0 0
rhand -46.3051 38.9709 0
rfingers 7.12502 0 0
rthumb -19.0377 9.90045 0
18
root 0.341028 17.5012 -26.7932 3.82594 -4.9412 1.71444
lfemur -0.0316703 5.24284 -25.5299
ltibia 63.13 0 0
lfoot 7.8152 2.7097 0
ltoes -8.36499 0 0
rfemur -30.152 -0.348895 21.8088
rtibia 64.0659 0 0
rfoot 4.72137 -0.271858 0
rtoes 9.40201 0 0
lowerback 17.2184 -1.32538 -3.20398
upperback 1.56467 -2.47743 -0.849588
thorax -7.87108 -1.09714 1.48556
lowerneck -3.631 1.85952 -1.3636
upperneck -11.9392 2.61651 1.13603
head -3.21248 1.30487 0.584492
lclavicle -3.60057e-15 1.2921e-15 0
lhumerus -23.4132 -19.8572 88.954
lradius 110.181 0 0
lwrist 29.1147 0 0
lhand -38.1737 9.38033 0
lfingers 7.12502 0 0
lthumb -11.2066 39.0591 0
rclavicle -3.60057e-15 1.2921e-15 0
rhumerus -53.8327 5.5441 -86.2496
rradius 87.5985 0 0
rwrist -2.84844 0 0
rhand -46.1445 38.8888 0
rfingers 7.12502 0 0
rthumb -18.8833 9.80305 0
19
root 0.355689 17.5241 -26.2382 3.7752 -5.37137 1.69061
lfemur 0.378576 5.65359 -25.3931
ltibia 64.4206 0 0
lfoot 9.36084 2.83595 0
ltoes -8.19714 0 0
rfemur -29.7976 -0.133268 22.1074
rtibia 61.4676 0 0
rfoot 4.24211 0.0222594 0
rtoes 9.45353 0 0
lowerback 17.0985 -1.33136 -3.09422
upperback 1.55629 -2.45319 -0.771546
thorax -7.81603 -1.08936 1.49792
lowerneck -3.66651 1.97656 -1.366
upperneck -11.8812 2.75669 0.961392
head -3.1852 1.38008 0.525756
lclavicle -3.25109e-15 1.78906e-15 0
lhumerus -24.201 -19.8114 89.3148
lradius 109.964 0 0
lwrist 29.2096 0 0
lhand -38.2314 9.43902 0
lfingers 7.12502 0 0
lthumb -11.2623 39.1148 0
rclavicle -3.25109e-15 1.78906e-15 0
rhumerus -53.7863 5.37617 -86.1287
rradius 87.982 0 0
rwrist -2.96937 0 0
rhand -45.984 38.8067 0
rfingers 7.12502 0 0
rthumb -18.7289 9.70565 0
20
root 0.370351 17.5471 -25.6832 3.72446 -5.80154 1.66677
lfemur 0.788823 6.06433 -25.2564
ltibia 65.7112 0 0
lfoot 10.9065 2.96219 0
ltoes -8.02929 0 0
rfemur -29.4432 0.0823587 22.406
rtibia 58.8694 0 0
rfoot 3.76286 0.316377 0
rtoes 9.50504 0 0
lowerback 16.9786 -1.33734 -2.98446
upperback 1.5479 -2.42894 -0.693503
thorax -7.76098 -1.08157 1.51027
lowerneck -3.70202 2.09361 -1.36839
upperneck -11.8233 2.89687 0.786755
head -3.15793 1.4553 0.467019
lclavicle -2.90161e-15 2.28602e-15 0
lhumerus -24.9888 -19.7657 89.6757
lradius 109.748 0 0
lwrist 29.3045 0 0
lhand -38.2892 9.49771 0
lfingers 7.12502 0 0
lthumb -11.3181 39.1705 0
rclavicle -2.90161e-15 2.28602e-15 0
rhumerus -53.7398 5.20823 -86.0078
rradius 88.3656 0 0
rwrist -3.0903 0 0
rhand -45.8234 38.7246 0
rfingers 7.12502 0 0
rthumb -18.5745 9.60826 0
21
root 0.385013 17.57 -25.1282 3.67372 -6.23171 1.64294
lfemur 1.19907 6.47508 -25.1196
ltibia 67.0019 0 0
lfoot 12.4521 3.08844 0
ltoes -7.86145 0 0
rfemur -29.0888 0.297985 22.7046
rtibia 56.2712 0 0
rfoot 3.2836 0.610495 0
rtoes 9.55655 0 0
lowerback 16.8587 -1.34332 -2.8747
upperback 1.53951 -2.4047 -0.615461
thorax -7.70594 -1.07378 1.52263
lowerneck -3.73754 2.21065 -1.37079
upperneck -11.7654 3.03705 0.612118
head -3.13066 1.53051 0.408283
lclavicle -2.55214e-15 2.78298e-15 0
lhumerus -25.7766 -19.7199 90.0366
lradius 109.531 0 0
lwrist 29.3994 0 0
lhand -38.347 9.5564 0
lfingers 7.12502 0 0
lthumb -11.3738 39.2262 0
rclavicle -2.55214e-15 2.78298e-15 0
rhumerus -53.6934 5.0403 -85.887
rradius 88.7491 0 0
rwrist -3.21123 0 0
rhand -45.6628 38.6425 0
rfingers 7.12502 0 0
rthumb -18.4201 9.51086 0
22
root 0.399674 17.5929 -24.5732 3.62298 -6.66188 1.61911
lfemur 1.60932 6.88583 -24.9828
ltibia 68.2925 0 0
lfoot 13.9977 3.21468 0
ltoes -7.6936 0 0
rfemur -28.7344 0.513612 23.0032
rtibia 53.6729 0 0
rfoot 2.80435 0.904613 0
rtoes 9.60807 0 0
lowerback 16.7388 -1.3493 -2.76494
upperback 1.53113 -2.38046 -0.537419
thorax -7.65089 -1.06599 1.53499
lowerneck -3.77305 2.3277 -1.37319
upperneck -11.7074 3.17723 0.437481
head -3.10338 1.60573 0.349547
lclavicle -2.20266e-15 3.27994e-15 0
lhumerus -26.5644 -19.6741 90.3974
lradius 109.314 0 0
lwrist 29.4943 0 0
lhand -38.4048 9.61509 0
lfingers 7.12502 0 0
lthumb -11.4295 39.2819 0
rclavicle -2.20266e-15 3.27994e-15 0
rhumerus -53.647 4.87237 -85.7661
rradius 89.1326 0 0
rwrist -3.33216 0 0
rhand -45.5023 38.5604 0
rfingers 7.12502 0 0
rthumb -18.2657 9.41346 0
23
root 0.414336 17.6159 -24.0182 3.57224 -7.09206 1.59528
lfemur 2.01956 7.29658 -24.8461
ltibia 69.5831 0 0
lfoot 15.5434 3.34092 0
ltoes -7.52575 0 0
rfemur -28.38 0.729239 23.3018
rtibia 51.0747 0 0
rfoot 2.32509 1.19873 0
rtoes 9.65958 0 0
lowerback 16.6188 -1.35528 -2.65518
upperback 1.52274 -2.35621 -0.459376
thorax -7.59584 -1.0582 1.54735
lowerneck -3.80856 2.44475 -1.37558
upperneck -11.6495 3.31741 0.262844
head -3.07611 1.68094 0.29081
lclavicle -1.85319e-15 3.77691e-15 0
lhumerus -27.3523 -19.6283 90.7583
lradius 109.097 0 0
lwrist 29.5893 0 0
lhand -38.4625 9.67378 0
lfingers 7.12502 0 0
lthumb -11.4852 39.3376 0
rclavicle -1.85319e-15 3.77691e-15 0
rhumerus -53.6005 4.70443 -85.6452
rradius 89.5162 0 0
rwrist -3.45308 0 0
rhand -45.3417 38.4783 0
rfingers 7.12502 0 0
rthumb -18.1113 9.31606 0
24
root 0.428998 17.6388 -23.4632 3.5215 -7.52223 1.57144
lfemur 2.42981 7.70732 -24.7093
ltibia 70.8737 0 0
lfoot 17.089 3.46717 0
ltoes -7.3579 0 0
rfemur -28.0256 0.944866 23.6004
rtibia 48.4764 0 0
rfoot 1.84584 1.49285 0
rtoes 9.71109 0 0
lowerback 16.4989 -1.36126 -2.54542
upperback 1.51435 -2.33197 -0.381334
thorax -7.54079 -1.05041 1.5597
lowerneck -3.84407 2.56179 -1.37798
upperneck -11.5916 3.4576 0.0882068
head -3.04884 1.75616 0.232074
lclavicle -1.50371e-15 4.27387e-15 0
lhumerus -28.1401 -19.5825 91.1192
lradius 108.881 0 0
lwrist 29.6842 0 0
lhand -38.5203 9.73247 0
lfingers 7.12502 0 0
lthumb -11.5409 39.3933 0
rclavicle -1.50371e-15 4.27387e-15 0
rhumerus -53.5541 4.5365 -85.5243
rradius 89.8997 0 0
rwrist -3.57401 0 0
rhand -45.1811 38.3962 0
rfingers 7.12502 0 0
rthumb -17.9569 9.21867 0
25
root 0.443659 17.6618 -22.9082 3.47076 -7.9524 1.54761
lfemur 2.84005 8.11807 -24.5726
ltibia 72.1643 0 0
lfoot 18.6347 3.59341 0
ltoes -7.19005 0 0
rfemur -27.6712 1.16049 23.899
rtibia 45.8782 0 0
rfoot 1.36658 1.78697 0
rtoes 9.76261 0 0
lowerback 16.379 -1.36724 -2.43566
upperback 1.50597 -2.30772 -0.303291
thorax -7.48574 -1.04262 1.57206
lowerneck -3.87958 2.67884 -1.38037
upperneck -11.5336 3.59778 -0.0864303
head -3.02156 1.83137 0.173337
lclavicle -1.15423e-15 4.77083e-15 0
lhumerus -28.9279 -19.5368 91.48
lradius 108.664 0 0
lwrist 29.7791 0 0
lhand -38.5781 9.79116 0
lfingers 7.12502 0 0
lthumb -11.5967 39.449 0
rclavicle -1.15423e-15 4.77083e-15 0
rhumerus -53.5076 4.36856 -85.4034
rradius 90.2833 0 0
rwrist -3.69494 0 0
rhand -45.0206 38.3141 0
rfingers 7.12502 0 0
rthumb -17.8025 9.12127 0
26
root 0.458321 17.6847 -22.3532 3.42002 -8.38257 1.52378
lfemur 3.2503 8.52882 -24.4358
ltibia 73.4549 0 0
lfoot 20.1803 3.71966 0
ltoes -7.02221 0 0
rfemur -27.3168 1.37612 24.1976
rtibia 43.28 0 0
rfoot 0.887329 2.08108 0
rtoes 9.81412 0 0
lowerback 16.2591 -1.37322 -2.3259
upperback 1.49758 -2.28348 -0.225249
thorax -7.4307 -1.03483 1.58442
lowerneck -3.9151 2.79588 -1.38277
upperneck -11.4757 3.73796 -0.261067
head -2.99429 1.90659 0.114601
lclavicle -8.04757e-16 5.26779e-15 0
lhumerus -29.7157 -19.491 91.8409
lradius 108.447 0 0
lwrist 29.874 0 0
lhand -38.6359 9.84985 0
lfingers 7.12502 0 0
lthumb -11.6524 39.5047 0
rclavicle -8.04757e-16 5.26779e-15 0
rhumerus -53.4612 4.20063 -85.2825
rradius 90.6668 0 0
rwrist -3.81587 0 0
rhand -44.86 38.232 0
rfingers 7.12502 0 0
rthumb -17.6481 9.02387 0
27
root 0.472983 17.7076 -21.7982 3.36927 -8.81274 1.49994
lfemur 3.66055 8.93956 -24.2991
ltibia 74.7455 0 0
lfoot 21.7259 3.8459 0
ltoes -6.85436 0 0
rfemur -26.9624 1.59175 24.4962
rtibia 40.6817 0 0
rfoot 0.408074 2.3752 0
rtoes 9.86563 0 0
lowerback 16.1392 -1.3792 -2.21614
upperback 1.48919 -2.25923 -0.147206
thorax -7.37565 -1.02704 1.59677
lowerneck -3.95061 2.91293 -1.38517
upperneck -11.4178 3.87814 -0.435705
head -2.96702 1.9818 0.0558648
lclavicle -4.55281e-16 5.76475e-15 0
lhumerus -30.5035 -19.4452 92.2018
lradius 108.231 0 0
lwrist 29.9689 0 0
lhand -38.6936 9.90855 0
lfingers 7.12502 0 0
lthumb -11.7081 39.5603 0
rclavicle -4.55281e-16 5.76475e-15 0
rhumerus -53.4148 4.03269 -85.1616
rradius 91.0503 0 0
rwrist -3.9368 0 0
rhand -44.6994 38.1498 0
rfingers 7.12502 0 0
rthumb -17.4937 8.92648 0
28
root 0.487644 17.7306 -21.2432 3.31853 -9.24291 1.47611
lfemur 4.07079 9.35031 -24.1623
ltibia 76.0361 0 0
lfoot 23.2716 3.97214 0
ltoes -6.68651 0 0
rfemur -26.608 1.80737 24.7948
rtibia 38.0835 0 0
rfoot -0.0711806 2.66932 0
rtoes 9.91715 0 0
lowerback 16.0193 -1.38518 -2.10638
upperback 1.48081 -2.23499 -0.0691638
thorax -7.3206 -1.01925 1.60913
lowerneck -3.98612 3.02998 -1.38756
upperneck -11.3598 4.01832 -0.610342
head -2.93974 2.05702 -0.00287158
lclavicle -1.05805e-16 6.26171e-15 0
lhumerus -31.2913 -19.3994 92.5626
lradius 108.014 0 0
lwrist 30.0638 0 0
lhand -38.7514 9.96724 0
lfingers 7.12502 0 0
lthumb -11.7638 39.616 0
rclavicle -1.05805e-16 6.26171e-15 0
rhumerus -53.3683 3.86476 -85.0407
rradius 91.4339 0 0
rwrist -4.05773 0 0
rhand -44.5389 38.0677 0
rfingers 7.12502 0 0
rthumb -17.3393 8.82908 0
